<svg xmlns="http://www.w3.org/2000/svg" width="22" height="22" viewBox="0 0 22 22">
    <path fill="#C7B0C9" fill-rule="nonzero" d="M20.524 5.382a10.858 10.858 0 0 0-4.003-3.933C14.836.483 12.996 0 11 0S7.164.483 5.479 1.45a10.856 10.856 0 0 0-4.004 3.932C.492 7.037 0 8.845 0 10.806c0 2.354.7 4.472 2.098 6.352 1.4 1.881 3.206 3.182 5.421 3.905.258.047.45.014.573-.099a.546.546 0 0 0 .186-.422l-.007-.76c-.005-.478-.007-.895-.007-1.251l-.33.055c-.21.038-.475.054-.794.05a6.162 6.162 0 0 1-.996-.099 2.244 2.244 0 0 1-.96-.422 1.787 1.787 0 0 1-.63-.865l-.143-.323a3.505 3.505 0 0 0-.45-.718c-.206-.263-.414-.44-.624-.535l-.1-.07a1.045 1.045 0 0 1-.186-.17.77.77 0 0 1-.13-.196c-.028-.066-.004-.12.072-.162.077-.042.215-.063.416-.063l.286.042c.191.038.427.15.71.338.28.187.512.431.694.731.22.385.484.678.795.88.31.201.623.302.938.302.315 0 .587-.023.816-.07.23-.047.444-.118.645-.211.085-.63.32-1.112.701-1.45a9.967 9.967 0 0 1-1.468-.253 5.904 5.904 0 0 1-1.346-.549 3.84 3.84 0 0 1-1.153-.943c-.306-.375-.556-.867-.752-1.477-.196-.61-.293-1.313-.293-2.11 0-1.136.377-2.102 1.131-2.899-.353-.853-.32-1.81.1-2.87.277-.085.688-.021 1.232.19.544.21.943.392 1.196.542.253.15.456.276.609.38A10.341 10.341 0 0 1 11 5.22c.945 0 1.862.122 2.75.365l.544-.337a7.77 7.77 0 0 1 1.318-.62c.506-.187.893-.238 1.16-.154.43 1.06.468 2.017.115 2.87.754.798 1.131 1.764 1.131 2.899 0 .797-.098 1.503-.293 2.117-.196.615-.449 1.107-.76 1.478a3.99 3.99 0 0 1-1.16.935 5.916 5.916 0 0 1-1.346.549 9.957 9.957 0 0 1-1.468.254c.496.422.745 1.088.745 1.997v2.969c0 .169.06.31.179.422.12.112.308.145.566.098 2.215-.722 4.022-2.023 5.42-3.904 1.4-1.88 2.099-3.998 2.099-6.353 0-1.96-.493-3.768-1.476-5.423z"/>
</svg>
