<svg xmlns="http://www.w3.org/2000/svg" width="21" height="21" viewBox="0 0 21 21">
    <path fill="#C7B0C9" fill-rule="nonzero" d="M20.123 12.02a9.73 9.73 0 0 0 .12-1.52c0-5.382-4.362-9.743-9.743-9.743-.517 0-1.025.042-1.52.12A5.888 5.888 0 0 0 .876 8.98a9.92 9.92 0 0 0-.12 1.52c0 5.381 4.362 9.742 9.742 9.742a9.76 9.76 0 0 0 1.521-.118 5.888 5.888 0 0 0 8.103-8.103zm-4.997 2.91c-.413.594-1.018 1.058-1.81 1.391-.792.334-1.729.5-2.811.5-1.297 0-2.37-.226-3.218-.684a4.17 4.17 0 0 1-1.465-1.318c-.377-.55-.568-1.087-.568-1.612 0-.309.118-.578.348-.798.232-.22.531-.331.884-.331.29 0 .537.087.74.26.2.172.368.422.506.753.165.383.344.704.535.96.19.252.456.463.801.628.342.165.797.248 1.366.248.778 0 1.407-.169 1.889-.5.484-.336.716-.744.716-1.237 0-.393-.125-.705-.382-.948-.26-.247-.595-.435-1.01-.566a18.2 18.2 0 0 0-1.68-.42c-.942-.206-1.73-.446-2.37-.72-.639-.277-1.148-.654-1.525-1.13-.378-.482-.567-1.08-.567-1.789 0-.676.2-1.28.598-1.806.398-.527.974-.93 1.726-1.212.749-.281 1.63-.422 2.64-.422.808 0 1.506.094 2.097.28.59.187 1.082.434 1.475.744.39.31.678.636.86.979.182.343.273.679.273 1.006 0 .304-.118.58-.348.822a1.15 1.15 0 0 1-.867.365c-.31 0-.553-.071-.721-.222-.164-.147-.337-.38-.523-.704-.236-.453-.518-.806-.846-1.058-.32-.248-.846-.377-1.58-.375-.678 0-1.221.138-1.631.41-.412.275-.61.595-.61.97 0 .234.068.432.204.6.137.172.33.32.576.444.246.127.497.225.75.296.255.072.678.176 1.266.315.738.159 1.407.337 2.009.53.6.195 1.112.43 1.535.71.427.278.76.633.998 1.063.24.43.36.955.36 1.573 0 .744-.207 1.413-.62 2.006z"/>
</svg>
