<?xml version="1.0" encoding="UTF-8"?>
<svg width="1637px" height="1037px" viewBox="0 0 1637 1037" version="1.1" xmlns="http://www.w3.org/2000/svg" xmlns:xlink="http://www.w3.org/1999/xlink">
    <!-- Generator: Sketch 55.1 (78136) - https://sketchapp.com -->
    <title>back_2</title>
    <desc>Created with Sketch.</desc>
    <defs>
        <linearGradient x1="41.7169526%" y1="70.8531117%" x2="101.354486%" y2="13.2377895%" id="linearGradient-1">
            <stop stop-color="#FAF9FD" offset="0%"></stop>
            <stop stop-color="#F6F1FA" offset="100%"></stop>
        </linearGradient>
    </defs>
    <g id="pages" stroke="none" stroke-width="1" fill="none" fill-rule="evenodd">
        <path d="M35.7138671,172.127134 C90.5760664,69.5037595 516.884787,-103.263998 693.771787,81.6713829 C870.658787,266.606764 613.775193,501.478548 693.771787,628.694166 C773.768381,755.909783 1102.67374,749.853109 1318.5994,640.677337 C1534.52505,531.501564 1662.92849,647.994618 1632.58603,794.842219 C1612.35773,892.74062 1589.69202,961.979291 1564.58893,1002.55823 C1407.37171,937.444913 1291.54331,925.389266 1217.10372,966.391291 C1105.44434,1027.89433 913.627959,1085.33846 729.249491,973.080796 C661.627371,931.909496 590.317798,938.386381 541.632479,943.265831 C402.346147,957.225701 295.618792,1009.40525 156.039522,943.265831 C-32.3274585,854.008428 -19.1483321,274.750509 35.7138671,172.127134 Z" id="back_2" fill="url(#linearGradient-1)"></path>
    </g>
</svg>